<svg width="100" height="100" fill="none" xmlns="http://www.w3.org/2000/svg"><path d="M35.938 34.375a4.693 4.693 0 00-4.688-4.688 4.693 4.693 0 00-4.688 4.688 4.693 4.693 0 004.688 4.688 4.693 4.693 0 004.688-4.688zm-6.25 0a1.563 1.563 0 113.126.001 1.563 1.563 0 01-3.127-.001z" fill="#FF42B4"/><path d="M85.938 34.375a6.256 6.256 0 00-3.766-5.734 5.99 5.99 0 00-1.38-6.308 5.984 5.984 0 00-6.308-1.38 6.256 6.256 0 00-5.734-3.765 6.21 6.21 0 00-2.186.41 6.282 6.282 0 00-3.144-3.02 5.981 5.981 0 00-7.686-7.687A6.256 6.256 0 0050 3.125a6.256 6.256 0 00-5.734 3.766 5.982 5.982 0 00-7.688 7.687 6.281 6.281 0 00-3.144 3.02 6.189 6.189 0 00-2.184-.41 6.256 6.256 0 00-5.734 3.765 5.982 5.982 0 00-7.688 7.688 6.256 6.256 0 00-3.765 5.734 6.256 6.256 0 003.765 5.734 5.99 5.99 0 001.38 6.308 5.99 5.99 0 006.308 1.38 6.262 6.262 0 004.172 3.553v3.337c0 3.335.798 6.524 2.31 9.402-.637.114-1.259.333-1.812.708a4.675 4.675 0 00-2.061 3.881v9.519c0 1.558.769 3.01 2.06 3.881a4.682 4.682 0 004.368.472l4.749-1.9c-.144.71-.24 1.431-.24 2.162v12.5c0 .865.699 1.563 1.563 1.563h18.75c.864 0 1.563-.698 1.563-1.563v-12.5c0-.73-.096-1.451-.24-2.162l4.749 1.9a4.682 4.682 0 004.369-.472 4.677 4.677 0 002.059-3.881v-9.519c0-1.558-.769-3.01-2.06-3.881-.552-.375-1.174-.594-1.812-.708a20.115 20.115 0 002.31-9.401V51.35a6.262 6.262 0 004.171-3.553 5.993 5.993 0 006.308-1.38 5.99 5.99 0 001.38-6.308 6.256 6.256 0 003.766-5.734zM39.062 17.187a1.561 1.561 0 001.105-2.667 2.86 2.86 0 010-4.04 2.86 2.86 0 014.04 0 1.561 1.561 0 002.667-1.105A3.128 3.128 0 0150 6.25a3.128 3.128 0 013.125 3.125 1.561 1.561 0 002.667 1.105 2.86 2.86 0 014.04 0 2.86 2.86 0 010 4.04 1.562 1.562 0 001.105 2.668 3.12 3.12 0 012.994 2.278c-.37.448-.681.947-.915 1.487a5.982 5.982 0 00-7.688 7.688c-.51.222-.976.532-1.414.884a6.2 6.2 0 00-3.914-1.4 6.2 6.2 0 00-3.914 1.4 6.255 6.255 0 00-1.414-.884 5.99 5.99 0 00-1.38-6.308 5.984 5.984 0 00-6.308-1.38 6.229 6.229 0 00-.915-1.487 3.12 3.12 0 012.993-2.279zm20.432 24.036c.24.585.812.965 1.444.965a3.128 3.128 0 013.124 3.124 3.128 3.128 0 01-3.124 3.126 1.561 1.561 0 00-1.105 2.667 2.86 2.86 0 010 4.04 2.86 2.86 0 01-4.04 0 1.562 1.562 0 00-2.668 1.105A3.128 3.128 0 0150 59.375a3.128 3.128 0 01-3.125-3.125 1.561 1.561 0 00-2.667-1.105 2.86 2.86 0 01-4.04 0 2.86 2.86 0 010-4.04 1.562 1.562 0 00-1.105-2.667 3.128 3.128 0 01-3.126-3.126 3.128 3.128 0 013.126-3.124 1.561 1.561 0 001.104-2.668 2.86 2.86 0 010-4.04 2.86 2.86 0 014.04 0 1.56 1.56 0 002.667-1.105A3.128 3.128 0 0150 31.25a3.128 3.128 0 013.125 3.125 1.56 1.56 0 002.667 1.105 2.86 2.86 0 014.04 0 2.86 2.86 0 010 4.04 1.562 1.562 0 00-.338 1.703zm5.36 8.947a6.22 6.22 0 002.334 1.17v3.347a16.98 16.98 0 01-3.461 10.326l-7.97 3.189c-1.43-1.572-3.47-2.577-5.757-2.577-2.288 0-4.327 1.005-5.758 2.577l-7.97-3.19a16.989 16.989 0 01-3.46-10.325v-3.346a6.256 6.256 0 002.333-1.17c.436.35.914.65 1.433.876a5.99 5.99 0 001.38 6.308 5.988 5.988 0 006.308 1.38A6.256 6.256 0 0050 62.5a6.256 6.256 0 005.734-3.766 5.99 5.99 0 006.308-1.38 5.99 5.99 0 001.38-6.307 6.216 6.216 0 001.433-.877zm-19.54 23.267A4.693 4.693 0 0150 68.75a4.693 4.693 0 014.688 4.688A4.693 4.693 0 0150 78.124a4.693 4.693 0 01-4.688-4.688zM28.125 45.314a1.561 1.561 0 00-2.667-1.105 2.86 2.86 0 01-4.04 0 2.86 2.86 0 010-4.04 1.562 1.562 0 00-1.105-2.668 3.128 3.128 0 01-3.125-3.125 3.128 3.128 0 013.125-3.125 1.561 1.561 0 001.104-2.667 2.86 2.86 0 010-4.04 2.86 2.86 0 014.04 0 1.56 1.56 0 002.668-1.105 3.128 3.128 0 013.125-3.125 3.128 3.128 0 013.125 3.125 1.561 1.561 0 002.667 1.104 2.86 2.86 0 014.04 0 2.86 2.86 0 010 4.04 1.562 1.562 0 001.105 2.668c.629 0 1.232.198 1.744.544-2.048-.624-4.36-.14-5.973 1.476a5.99 5.99 0 00-1.38 6.308 6.256 6.256 0 00-3.766 5.734c0 .833.179 1.62.476 2.347a3.114 3.114 0 01-2.038.779 3.128 3.128 0 01-3.125-3.126zm5.269 34.335a1.54 1.54 0 01-1.458-.157 1.539 1.539 0 01-.686-1.294v-9.519c0-.526.25-1 .686-1.294a1.544 1.544 0 011.458-.157l9.245 3.698c-.272.794-.452 1.63-.452 2.513 0 .882.18 1.718.452 2.51l-9.245 3.7zm24.419 3.165V93.75H42.187V82.812c0-1.293.332-2.562.94-3.692l1.115-.447c1.431 1.572 3.47 2.577 5.758 2.577s4.327-1.005 5.758-2.577l1.115.447c.608 1.13.94 2.399.94 3.692zM68.75 68.677v9.519c0 .526-.25 1-.686 1.294a1.544 1.544 0 01-1.458.157l-9.245-3.698c.272-.794.452-1.63.452-2.513 0-.882-.18-1.718-.452-2.51l9.245-3.699a1.541 1.541 0 011.458.158c.436.292.686.766.686 1.292zM79.688 37.5a1.561 1.561 0 00-1.105 2.667 2.86 2.86 0 010 4.04 2.86 2.86 0 01-4.04 0 1.561 1.561 0 00-2.667 1.105 3.128 3.128 0 01-3.126 3.126 3.114 3.114 0 01-2.037-.779 6.182 6.182 0 00.475-2.346 6.256 6.256 0 00-3.766-5.735 5.99 5.99 0 00-1.38-6.308c-1.615-1.615-3.926-2.1-5.973-1.476a3.123 3.123 0 011.743-.544 1.561 1.561 0 001.105-2.667 2.86 2.86 0 010-4.04 2.86 2.86 0 014.04 0 1.56 1.56 0 002.668-1.105 3.128 3.128 0 013.125-3.125 3.128 3.128 0 013.125 3.125 1.561 1.561 0 002.667 1.104 2.86 2.86 0 014.04 0 2.86 2.86 0 010 4.04 1.562 1.562 0 001.106 2.668 3.128 3.128 0 013.124 3.125 3.128 3.128 0 01-3.124 3.125z" fill="#FF42B4"/><path d="M68.75 29.688a4.693 4.693 0 00-4.688 4.687 4.693 4.693 0 004.688 4.688 4.693 4.693 0 004.688-4.688 4.693 4.693 0 00-4.688-4.688zm0 6.25a1.563 1.563 0 11.001-3.127 1.563 1.563 0 01-.001 3.127zM50 40.625a4.693 4.693 0 00-4.688 4.688A4.693 4.693 0 0050 50a4.693 4.693 0 004.688-4.688A4.693 4.693 0 0050 40.626zm0 6.25a1.563 1.563 0 11.001-3.126A1.563 1.563 0 0150 46.875zM50 25a4.693 4.693 0 004.688-4.688A4.693 4.693 0 0050 15.625a4.693 4.693 0 00-4.688 4.688A4.693 4.693 0 0050 25zm0-6.25a1.563 1.563 0 11-.001 3.126A1.563 1.563 0 0150 18.75z" fill="#FF42B4"/></svg>