<svg width="100" height="100" fill="none" xmlns="http://www.w3.org/2000/svg"><path d="M50 90.625a3.125 3.125 0 01-2.218-.906L25.688 67.844a34.093 34.093 0 010-48.375 34.594 34.594 0 0148.625 0 34.094 34.094 0 010 48.375L52.219 89.719a3.127 3.127 0 01-2.219.906zm0-75a28.125 28.125 0 00-19.906 8.187 27.845 27.845 0 000 39.5L50 83.094l19.906-19.782a27.841 27.841 0 000-39.5A28.125 28.125 0 0050 15.625z" fill="#FF42B4"/><path d="M50 59.375a15.625 15.625 0 110-31.25 15.625 15.625 0 010 31.25zm0-25a9.375 9.375 0 100 18.75 9.375 9.375 0 000-18.75z" fill="#FF42B4"/></svg>