<svg width="100" height="100" fill="none" xmlns="http://www.w3.org/2000/svg"><path d="M60.332 61.309l-.664-.899-9.511-12.93V21.387h1.27c1.093 0 2.089-.45 2.812-1.172a3.972 3.972 0 001.172-2.813 3.968 3.968 0 00-3.965-3.965h-20.86c-1.093 0-2.09.45-2.793 1.172a3.972 3.972 0 00-1.172 2.813 3.968 3.968 0 003.965 3.965h1.27V47.48l-9.512 12.93L8.535 79.18c-2.246 3.047-.058 7.363 3.711 7.363h57.52a4.64 4.64 0 001.894-.39c2.54-1.134 3.672-4.473 1.836-6.973L60.332 61.309zM42.344 26.348c0-.762.605-1.367 1.367-1.367s1.367.605 1.367 1.367V45.37c0 .762-.605 1.367-1.367 1.367a1.359 1.359 0 01-1.367-1.367V26.348zm.41 24.043a1.355 1.355 0 011.23-.371c.098.02.176.039.255.078l.234.117c.078.058.137.097.215.176.254.254.39.605.39.976 0 .352-.156.703-.39.957a1.39 1.39 0 01-.977.41c-.351 0-.703-.136-.976-.41a1.36 1.36 0 01-.39-.957c0-.37.155-.722.41-.976zM18.653 78.67L32.09 60.41h17.793l8.535 11.6 4.903 6.66H18.653z" fill="#FE5DBE"/><path d="M43.71 68.184h-1.347v-1.348c0-.762-.605-1.367-1.367-1.367s-1.367.605-1.367 1.367v1.348H38.28c-.761 0-1.367.605-1.367 1.367 0 .761.605 1.367 1.367 1.367h1.348v1.348c0 .761.605 1.367 1.367 1.367s1.367-.606 1.367-1.367v-1.348h1.348c.762 0 1.367-.606 1.367-1.367 0-.762-.605-1.367-1.367-1.367zm38.946-14.121V34.276h1.016a3.11 3.11 0 002.246-.937c.566-.586.938-1.367.938-2.246a3.184 3.184 0 00-3.184-3.184h-16.7a3.11 3.11 0 00-2.245.938 3.19 3.19 0 00-.938 2.246 3.184 3.184 0 003.184 3.183h1.015v19.785a17.52 17.52 0 00-4.648 3.262 15.164 15.164 0 00-1.406 1.563l13.75 18.672a7.28 7.28 0 011.191 6.21 7.334 7.334 0 01-1.387 2.754c9.356-.097 16.895-7.695 16.895-17.07 0-6.777-3.965-12.637-9.727-15.39zm1.856 16.777a1.359 1.359 0 01-1.368-1.367c0-3.008-1.757-5.782-4.472-7.09a1.354 1.354 0 01-.645-1.817 1.354 1.354 0 011.817-.644c3.652 1.738 6.015 5.488 6.015 9.55a1.33 1.33 0 01-1.347 1.368z" fill="#16ADE1"/></svg>